<svg width="600" height="620" viewBox="0 0 600 620" fill="none" xmlns="http://www.w3.org/2000/svg">
<path d="M123.341 122.325C123.049 122.325 122.756 122.311 122.462 122.282C118.843 121.922 115.343 119.629 112.858 115.992C112.757 115.845 112.743 115.655 112.82 115.494C112.898 115.332 113.055 115.225 113.233 115.211C113.412 115.198 113.584 115.28 113.684 115.428C116.001 118.821 119.237 120.956 122.56 121.287C126.323 121.646 130.056 119.316 130.887 116.061C131.384 113.702 130.617 111.254 128.863 109.601C127.933 108.766 126.585 108.588 125.47 109.154C124.464 109.668 123.963 110.822 124.274 111.907C124.63 113.268 125.893 114.191 127.298 114.117C127.327 114.117 127.36 114.116 127.386 114.116C127.662 114.114 127.888 114.336 127.89 114.612C127.893 114.888 127.671 115.114 127.395 115.116C125.498 115.234 123.783 113.991 123.305 112.152C122.865 110.607 123.591 108.968 125.031 108.256C126.498 107.515 128.27 107.743 129.502 108.831C131.536 110.743 132.428 113.576 131.855 116.309C130.973 119.765 127.262 122.325 123.341 122.325Z" fill="#A844FF"/>
<path d="M61.2044 325.974C60.5132 325.966 59.8432 325.734 59.2948 325.313C57.6393 323.957 56.8252 321.826 57.1546 319.712C57.7074 316.839 60.7811 314.629 64.0267 314.732C67.0525 314.992 69.8109 316.569 71.5697 319.045C71.7381 319.264 71.698 319.577 71.48 319.746C71.262 319.915 70.9483 319.876 70.7787 319.658C69.2007 317.417 66.7178 315.981 63.9877 315.732C61.2001 315.628 58.6 317.494 58.1371 319.902C57.8929 321.635 58.5531 323.372 59.8866 324.506C60.5764 325.065 61.5422 325.134 62.3041 324.678C62.9845 324.284 63.2834 323.458 63.0131 322.719C62.6927 321.758 61.7335 321.16 60.7294 321.297C60.4552 321.316 60.2163 321.112 60.1918 320.838C60.1815 320.706 60.2241 320.575 60.3103 320.474C60.3964 320.374 60.5191 320.311 60.6513 320.301C62.1204 320.122 63.5104 321.009 63.9663 322.417C64.3829 323.606 63.8907 324.924 62.7963 325.548C62.3097 325.821 61.7624 325.967 61.2044 325.974V325.974Z" fill="#A844FF"/>
<path d="M511.617 267.082C511.511 267.082 511.407 267.049 511.322 266.987C510.091 265.954 509.36 264.444 509.315 262.838C509.055 260.342 509.792 257.844 511.364 255.887C513.893 253.399 517.406 252.178 520.933 252.561C523.843 252.861 526.508 254.324 528.325 256.617C529.559 258.392 529.887 260.643 529.208 262.696C528.519 264.361 526.978 265.519 525.187 265.719C523.166 266.193 521.087 265.204 520.181 263.336C519.454 262.055 519.686 260.445 520.744 259.421C520.955 259.244 521.269 259.27 521.448 259.48C521.626 259.69 521.6 260.004 521.391 260.183C520.686 260.917 520.56 262.033 521.083 262.906C521.789 264.37 523.428 265.135 525.003 264.737C526.451 264.589 527.705 263.668 528.278 262.329C528.831 260.599 528.552 258.71 527.522 257.213C525.884 255.146 523.482 253.829 520.859 253.559C517.632 253.197 514.413 254.304 512.09 256.573C510.709 258.318 510.07 260.535 510.311 262.746C510.334 264.065 510.916 265.312 511.911 266.178C512.087 266.306 512.16 266.531 512.092 266.737C512.025 266.943 511.833 267.082 511.616 267.082L511.617 267.082Z" fill="#A844FF"/>
<path d="M303.468 412.779C299.784 412.635 296.455 410.539 294.733 407.28C293.132 404.377 292.59 400.735 293.123 396.452C293.145 396.275 293.26 396.123 293.425 396.054C293.589 395.984 293.778 396.007 293.921 396.115C294.063 396.223 294.138 396.398 294.116 396.575C293.61 400.644 294.112 404.083 295.608 406.797C297.222 409.89 300.441 411.811 303.93 411.764C305.749 411.748 307.47 410.941 308.646 409.553C309.617 408.247 309.976 406.585 309.629 404.994C309.173 403.223 307.677 401.913 305.861 401.696C304.592 401.438 303.306 402.048 302.703 403.194C302.58 403.44 302.28 403.539 302.033 403.416C301.786 403.293 301.686 402.993 301.809 402.746C302.59 401.203 304.303 400.368 305.999 400.705C308.238 400.989 310.07 402.621 310.612 404.811C311.013 406.682 310.584 408.635 309.436 410.166C308.088 411.784 306.1 412.732 303.994 412.762C303.82 412.774 303.643 412.779 303.468 412.779Z" fill="#A844FF"/>
<path fill-rule="evenodd" clip-rule="evenodd" d="M55.1687 148.711C55.1688 151.391 57.3412 153.563 60.0208 153.563C62.6994 153.56 64.8699 151.389 64.8728 148.71C64.8726 146.031 62.7001 143.858 60.0204 143.859C57.3408 143.859 55.1686 146.031 55.1687 148.711ZM56.4619 147.237C57.0581 145.797 58.4628 144.859 60.0208 144.859C62.1471 144.861 63.8704 146.584 63.8728 148.71C63.873 150.268 62.9346 151.673 61.4952 152.269C60.0558 152.866 58.3989 152.536 57.2971 151.435C56.1953 150.333 55.8657 148.676 56.4619 147.237Z" fill="#A844FF"/>
<path fill-rule="evenodd" clip-rule="evenodd" d="M583.54 206.641C583.539 209.321 585.712 211.493 588.391 211.493C591.07 211.491 593.241 209.32 593.244 206.641C593.243 203.961 591.071 201.789 588.391 201.789C585.712 201.789 583.54 203.962 583.54 206.641ZM584.54 206.642C584.539 204.514 586.264 202.79 588.391 202.789C590.518 202.791 592.241 204.514 592.244 206.641C592.244 208.768 590.52 210.493 588.392 210.493C586.265 210.494 584.54 208.769 584.54 206.642Z" fill="#A844FF"/>
<path d="M525.238 115.574C525.034 115.574 524.851 115.451 524.774 115.262C524.698 115.073 524.744 114.857 524.89 114.715C525.884 113.76 526.292 112.346 525.959 111.008C525.626 109.67 524.603 108.612 523.277 108.233C521.951 107.855 520.524 108.214 519.536 109.175C519.337 109.367 519.021 109.362 518.829 109.163C518.637 108.965 518.642 108.648 518.84 108.456C520.087 107.25 521.882 106.801 523.549 107.277C525.217 107.754 526.503 109.085 526.923 110.768C527.343 112.45 526.833 114.229 525.585 115.434C525.492 115.524 525.368 115.574 525.238 115.574Z" fill="#A844FF"/>
<path d="M156.671 21.721C156.491 21.7214 156.324 21.6243 156.235 21.4671C155.381 19.959 155.396 18.1095 156.275 16.6155C157.154 15.1214 158.763 14.2097 160.496 14.2239C162.23 14.238 163.824 15.1758 164.678 16.6839C164.813 16.9241 164.728 17.2277 164.488 17.3632C164.249 17.4988 163.945 17.4151 163.808 17.1761C163.13 15.9774 161.864 15.2317 160.487 15.2203C159.11 15.2089 157.831 15.9334 157.134 17.1208C156.436 18.3081 156.425 19.7775 157.105 20.9749C157.171 21.0902 157.188 21.2267 157.152 21.3544C157.117 21.4821 157.032 21.5904 156.917 21.6556C156.842 21.6987 156.757 21.7213 156.671 21.721V21.721Z" fill="#A844FF"/>
<path fill-rule="evenodd" clip-rule="evenodd" d="M335.694 243.95C336.252 245.299 337.569 246.179 339.029 246.179C341.021 246.177 342.637 244.562 342.639 242.57C342.639 241.11 341.76 239.793 340.411 239.234C339.062 238.675 337.509 238.984 336.477 240.016C335.444 241.049 335.135 242.601 335.694 243.95ZM336.419 242.569C336.419 241.128 337.587 239.96 339.029 239.959V239.959C340.47 239.961 341.637 241.129 341.639 242.57C341.639 244.011 340.47 245.179 339.029 245.179C337.588 245.179 336.419 244.011 336.419 242.569Z" fill="#A844FF"/>
<path fill-rule="evenodd" clip-rule="evenodd" d="M556.3 362.364C556.408 364.282 557.995 365.782 559.916 365.782C560.189 365.782 560.461 365.752 560.727 365.691C562.6 365.261 563.811 363.444 563.487 361.55C563.164 359.656 561.418 358.344 559.509 358.561C557.6 358.777 556.192 360.446 556.3 362.364ZM559.344 359.626C559.536 359.582 559.732 359.56 559.929 359.56C561.304 359.561 562.439 360.635 562.516 362.007C562.593 363.38 561.586 364.574 560.22 364.729C558.854 364.884 557.604 363.946 557.372 362.591C557.139 361.236 558.005 359.935 559.344 359.626Z" fill="#A844FF"/>
<path fill-rule="evenodd" clip-rule="evenodd" d="M464.198 13.3551C464.832 14.5047 466.04 15.2199 467.353 15.2229C467.625 15.2228 467.897 15.192 468.162 15.1311C469.097 14.9208 469.909 14.3451 470.416 13.5325C471.475 11.8445 470.966 9.6177 469.279 8.55742C467.592 7.49715 465.365 8.00438 464.303 9.69069C463.605 10.8024 463.565 12.2054 464.198 13.3551ZM466.78 9.06666C466.971 9.0229 467.168 9.00063 467.365 9.00026C468.741 9.00117 469.877 10.0759 469.954 11.4498C470.031 12.8236 469.023 14.019 467.656 14.1742C466.288 14.3294 465.038 13.3904 464.805 12.0342C464.572 10.678 465.439 9.37594 466.78 9.06666Z" fill="#A844FF"/>
<path fill-rule="evenodd" clip-rule="evenodd" d="M350.685 62.4709C350.685 64.4649 352.301 66.0813 354.295 66.0813C356.289 66.0794 357.904 64.4641 357.906 62.4709C357.906 60.477 356.289 58.8606 354.295 58.8606C352.301 58.8606 350.685 60.477 350.685 62.4709ZM351.685 62.4709C351.685 61.0293 352.854 59.8606 354.295 59.8606C355.736 59.8622 356.904 61.0299 356.906 62.4709C356.906 63.9126 355.737 65.0813 354.295 65.0813C352.854 65.0813 351.685 63.9126 351.685 62.4709Z" fill="#A844FF"/>
<path fill-rule="evenodd" clip-rule="evenodd" d="M87.3305 413.671C87.8894 415.02 89.2061 415.9 90.6664 415.9C92.6592 415.897 94.2741 414.282 94.2762 412.289C94.2762 410.829 93.3965 409.512 92.0474 408.954C90.6982 408.395 89.1453 408.704 88.1128 409.737C87.0803 410.769 86.7715 412.322 87.3305 413.671ZM88.2544 411.29C88.6585 410.315 89.6105 409.679 90.6664 409.679V409.679C92.1072 409.681 93.2746 410.848 93.2762 412.289C93.2762 413.345 92.6402 414.297 91.6647 414.701C90.6892 415.105 89.5664 414.882 88.8199 414.135C88.0734 413.388 87.8502 412.265 88.2544 411.29Z" fill="#A844FF"/>
<path d="M10.6103 253.718C9.31915 253.72 8.12519 253.033 7.47902 251.915C6.83284 250.797 6.83284 249.419 7.47902 248.301C8.12519 247.184 9.31915 246.496 10.6103 246.498C10.8864 246.498 11.1103 246.722 11.1103 246.998C11.1103 247.274 10.8864 247.498 10.6103 247.498C9.67663 247.496 8.81314 247.994 8.34579 248.802C7.87845 249.61 7.87845 250.606 8.34579 251.415C8.81314 252.223 9.67663 252.72 10.6103 252.718C10.8864 252.718 11.1103 252.942 11.1103 253.218C11.1103 253.494 10.8864 253.718 10.6103 253.718V253.718Z" fill="#A844FF"/>
<path d="M30.1709 462.955C28.8288 462.954 27.5984 462.207 26.9767 461.018C26.3551 459.828 26.4447 458.392 27.2094 457.289C27.3669 457.063 27.6785 457.006 27.9052 457.164C28.132 457.321 28.1882 457.633 28.0307 457.86C27.2135 459.045 27.5097 460.667 28.6927 461.487C29.8758 462.307 31.4993 462.015 32.3217 460.833C32.4233 460.686 32.596 460.604 32.7745 460.618C32.953 460.633 33.1101 460.742 33.1862 460.904C33.2623 461.066 33.2458 461.257 33.143 461.404C32.4673 462.378 31.3563 462.958 30.1709 462.955V462.955Z" fill="#A844FF"/>
<path fill-rule="evenodd" clip-rule="evenodd" d="M375.758 446.51C376.316 447.859 377.633 448.739 379.093 448.739C381.086 448.737 382.702 447.121 382.703 445.128C382.703 443.668 381.824 442.351 380.475 441.793C379.126 441.234 377.573 441.543 376.54 442.575C375.508 443.608 375.199 445.161 375.758 446.51ZM376.681 444.129C377.086 443.154 378.037 442.518 379.093 442.518C380.534 442.519 381.702 443.687 381.703 445.128C381.703 446.184 381.067 447.136 380.092 447.54C379.117 447.944 377.994 447.721 377.247 446.974C376.501 446.227 376.277 445.105 376.681 444.129Z" fill="#A844FF"/>
<path fill-rule="evenodd" clip-rule="evenodd" d="M70.6748 43.2099C70.6749 45.2035 72.2911 46.8196 74.2847 46.8196C76.2775 46.8172 77.8924 45.2021 77.8945 43.2092C77.8943 41.2156 76.2779 39.5997 74.2843 39.5999C72.2907 39.6 70.6747 41.2163 70.6748 43.2099ZM71.8734 42.2111C72.2773 41.2358 73.229 40.5999 74.2847 40.5999C75.7251 40.6016 76.8925 41.7687 76.8945 43.2092C76.8947 44.2649 76.259 45.2167 75.2838 45.6208C74.3085 46.0249 73.1859 45.8017 72.4394 45.0553C71.6929 44.309 71.4695 43.1864 71.8734 42.2111Z" fill="#A844FF"/>
<path d="M258.517 178.078C273.29 180.359 287.788 180.777 294.585 180.212C302.893 179.521 309.104 179.117 313.665 172.156C316.779 167.402 315.617 158.133 307.803 147.737C299.307 136.435 267.258 96.8026 253.93 87.5853C252.825 86.7783 251.303 83.6071 250.033 82.0707C248.641 80.3872 245.828 78.8426 245.173 78.9956L247.532 89.017L247.846 92.8646C265.388 112.742 288.534 144.621 292.418 150.171C297.05 156.79 293.377 159.515 280.768 159.064C274.608 158.482 268.486 157.548 262.432 156.266L258.517 178.078Z" fill="white"/>
<path d="M258.384 178.559C267.112 179.906 275.918 180.688 284.748 180.902C290.867 181.034 297.273 180.965 303.279 179.658C308.307 178.564 313.36 175.398 315.109 170.301C317.001 164.787 314.749 158.438 312.143 153.56C309.777 149.132 306.534 145.212 303.436 141.281C300.192 137.165 296.902 133.087 293.566 129.046C285.656 119.44 277.574 109.946 269.018 100.907C265.288 96.8398 261.317 93.0015 257.125 89.4128C256.382 88.7975 255.617 88.2151 254.851 87.6309C253.504 86.415 252.385 84.9684 251.546 83.3593C250.256 81.3624 247.795 78.5315 245.173 78.4962C245.018 78.4984 244.873 78.5718 244.779 78.6952C244.685 78.8186 244.653 78.9783 244.692 79.1284L246.57 87.1062C246.786 87.9336 246.957 88.7722 247.082 89.6182C247.209 90.6931 246.996 92.1205 247.415 93.1167C247.8 94.0326 249.077 95.0259 249.732 95.784C250.499 96.6724 251.261 97.5645 252.019 98.4604C253.753 100.509 255.469 102.572 257.167 104.652C260.676 108.943 264.131 113.278 267.531 117.658C273.628 125.483 279.607 133.398 285.469 141.403C287.254 143.835 289.026 146.277 290.785 148.728C292.117 150.592 294.825 153.583 293.548 155.988C292.532 157.898 289.378 158.229 287.517 158.424C284.327 158.721 281.115 158.675 277.935 158.286C272.771 157.722 267.641 156.887 262.564 155.785C262.299 155.715 262.026 155.87 261.95 156.134L258.035 177.945C257.922 178.574 258.885 178.843 258.998 178.211L260.694 168.766L261.962 161.697C262.212 160.308 262.939 158.389 262.809 156.978C262.715 155.949 262.98 157.069 262.427 156.776C263.238 157.052 264.081 157.223 264.935 157.284C268.627 157.998 272.343 158.601 276.075 159.066C280.064 159.663 284.111 159.76 288.124 159.354C289.949 159.125 292.096 158.77 293.542 157.519C296.277 155.152 294.008 151.563 292.393 149.271C290.048 145.944 287.634 142.663 285.219 139.386C276.963 128.178 268.525 117.094 259.767 106.273C257.151 103.041 254.497 99.8406 251.806 96.6714C250.829 95.5271 248.989 94.094 248.339 92.789C247.931 91.9695 248.175 90.3746 248.068 89.4601C247.651 85.9067 246.475 82.3469 245.655 78.8628L245.173 79.4951C248.62 79.5415 250.694 84.1083 252.338 86.4711C253.428 87.7786 254.699 88.9228 256.115 89.8688C259.491 92.7055 262.704 95.7311 265.738 98.9311C273.639 107.043 281.058 115.63 288.332 124.303C294.376 131.511 300.338 138.8 306.062 146.266C312.747 154.986 321.066 171.262 306.737 177.531C300.819 180.12 293.313 179.98 286.945 179.935C277.469 179.832 268.013 179.051 258.649 177.596C258.02 177.501 257.749 178.463 258.384 178.559Z" fill="black"/>
<path d="M213.782 135.172C212.504 131.709 212.989 119.113 219.3 116.419C223.212 114.749 230.217 118.904 235.361 118.549C242.513 118.055 243.579 111.258 245.41 106.466C245.626 105.9 245.88 104.827 247.074 104.941C247.94 105.024 248.539 105.15 249.405 105.235C253.057 105.593 254.495 102.345 252.632 100.201C251.57 99.3012 250.21 98.8282 248.818 98.8747C248.424 98.8618 248.053 98.6831 247.798 98.3825C247.542 98.082 247.425 97.6876 247.475 97.2963C248.004 92.836 247.743 88.3174 246.705 83.9475C245.025 75.7042 239.964 72.9843 234.469 72.9903C229.796 72.9954 223.097 76.4789 219.006 86.236C214.934 95.9488 209.545 120.254 204.606 128.039C203.692 129.385 202.708 130.683 201.658 131.927C203.282 133.785 205.393 135.151 207.753 135.87C211.74 137.052 213.782 135.172 213.782 135.172Z" fill="white"/>
<path fill-rule="evenodd" clip-rule="evenodd" d="M207.611 136.349C208.478 136.615 209.379 136.754 210.287 136.762C211.669 136.823 213.028 136.39 214.121 135.54L214.367 135.313L214.251 134.999C213.027 131.683 213.463 119.454 219.496 116.879C221.502 116.023 224.504 116.854 227.679 117.732L227.68 117.733L227.704 117.739C230.321 118.465 233.025 119.215 235.396 119.048C241.813 118.605 243.555 113.437 245.092 108.876L245.093 108.875L245.11 108.823C245.364 108.072 245.612 107.337 245.876 106.644L245.944 106.459C246.218 105.693 246.431 105.373 247.026 105.439C247.456 105.48 247.818 105.532 248.182 105.584C248.551 105.637 248.92 105.69 249.356 105.733C251.031 106.037 252.718 105.264 253.58 103.795C254.228 102.497 254 100.933 253.009 99.8733C251.998 98.7093 249.901 98.3831 248.822 98.3743C248.584 98.3718 248.36 98.2676 248.204 98.0882C248.026 97.8866 247.942 97.619 247.973 97.3519C248.508 92.8398 248.245 88.2686 247.194 83.848C245.283 74.4632 239.233 72.4905 234.486 72.4905H234.468C229.742 72.4954 222.735 76.0472 218.545 86.0423C216.893 89.9837 215.039 96.2659 213.076 102.917C210.272 112.417 207.094 123.184 204.183 127.771C203.283 129.096 202.314 130.373 201.282 131.598L201.007 131.911L201.267 132.238C202.951 134.18 205.15 135.605 207.611 136.349ZM207.895 135.39C205.77 134.731 203.85 133.537 202.319 131.921V131.921C203.135 130.939 204.488 129.157 205.028 128.306C208.014 123.601 211.075 113.23 214.035 103.201L214.035 103.199C215.99 96.5758 217.836 90.3195 219.467 86.4291C223.468 76.8861 230.049 73.4955 234.469 73.4906H234.486C238.86 73.4906 244.438 75.3246 246.215 84.0472C247.242 88.3661 247.5 92.8321 246.979 97.2406C246.917 97.7891 247.09 98.338 247.456 98.7513C247.798 99.1445 248.293 99.3715 248.814 99.3743C250.063 99.3282 251.286 99.7389 252.254 100.53C252.971 101.282 253.145 102.401 252.691 103.336C252.01 104.433 250.72 104.992 249.454 104.737C249.035 104.696 248.679 104.645 248.324 104.594C247.946 104.539 247.568 104.486 247.122 104.443C246.091 104.384 245.181 105.106 245.002 106.122L244.942 106.286C244.672 106.994 244.418 107.746 244.159 108.514L244.145 108.556C242.638 113.029 241.079 117.653 235.327 118.05C233.115 118.199 230.49 117.474 227.947 116.77C224.598 115.841 221.434 114.965 219.104 115.959C212.637 118.719 212.002 130.928 213.196 134.989C212.576 135.396 210.814 136.255 207.895 135.39Z" fill="black"/>
<path d="M251.613 579.533C251.355 581.516 249.663 582.998 247.663 582.993H240.973C239.899 582.992 238.87 582.558 238.12 581.788C237.371 581.017 236.964 579.977 236.993 578.903C238.793 503.723 219.473 424.023 195.253 359.793C194.633 428.803 177.463 559.303 172.443 577.483C171.703 579.663 171.013 583.253 167.363 583.233C164.642 583.208 161.927 582.967 159.243 582.513C155.613 581.933 156.253 577.213 156.543 575.133C163.293 513.933 154.253 460.363 149.473 396.593C147.923 375.873 139.583 352.983 139.583 352.983C131.503 331.653 126.713 316.563 126.273 295.953C136.423 305.863 171.793 308.583 187.083 308.363C197.493 308.213 225.983 310.203 240.203 302.473C253.713 359.833 255.353 391.783 257.343 458.163C258.303 490.093 256.183 543.423 251.613 579.533Z" fill="white"/>
<path d="M251.131 579.4C250.419 582.765 247.421 582.493 244.794 582.493C242.521 582.493 239.39 583.038 238.064 580.745C237.047 578.986 237.551 576.365 237.576 574.387C237.603 572.274 237.614 570.161 237.608 568.048C237.598 563.957 237.529 559.867 237.402 555.778C236.859 539.125 235.478 522.51 233.265 505.997C228.842 473.366 221.892 441.128 212.479 409.573C207.514 392.736 201.933 376.098 195.735 359.66C195.663 359.426 195.431 359.278 195.188 359.311C194.945 359.344 194.761 359.548 194.753 359.793C194.45 391.521 191.667 423.253 188.527 454.807C185.465 485.582 181.852 516.327 177.327 546.923C176.013 555.809 174.713 564.731 172.86 573.524C172.616 574.683 172.373 575.849 172.058 576.991C171.762 578.282 171.302 579.531 170.69 580.706C169.084 583.443 165.746 582.774 163.045 582.512C160.261 582.241 157.279 582.265 156.855 578.875C156.774 576.989 156.905 575.1 157.247 573.243C157.852 567.495 158.329 561.737 158.678 555.967C161.437 510.603 156.01 465.41 151.948 420.301C150.93 408.995 150.54 397.529 148.73 386.316C147.225 377.312 145.089 368.425 142.338 359.721C140.503 353.804 138.219 348.065 136.154 342.226C132.548 332.503 129.868 322.462 128.147 312.236C127.345 306.843 126.886 301.404 126.773 295.953L125.92 296.306C130.612 300.759 137.496 302.736 143.614 304.255C151.855 306.202 160.238 307.493 168.683 308.115C175.601 308.702 182.49 308.816 189.425 308.858C197.37 308.907 205.307 309.14 213.248 308.708C222.392 308.211 232.234 307.262 240.456 302.905L239.721 302.606C243.854 320.19 247.465 337.9 250.029 355.785C252.428 372.523 253.877 389.374 254.825 406.252C256.91 443.382 257.717 480.528 256.034 517.687C255.098 538.341 253.694 559.014 251.113 579.533C251.033 580.17 252.034 580.164 252.113 579.533C256.683 543.197 258.331 506.229 258.051 469.621C257.904 450.533 257.104 431.412 256.149 412.348C255.297 395.353 254.025 378.375 251.813 361.498C249.097 341.605 245.383 321.86 240.685 302.34C240.642 302.192 240.533 302.071 240.39 302.013C240.247 301.955 240.085 301.965 239.951 302.041C232.492 305.994 223.618 307.019 215.32 307.582C207.458 308.115 199.583 307.989 191.711 307.883C177.076 307.687 162.566 307.235 148.167 304.262C140.908 302.763 132.188 300.877 126.627 295.599C126.482 295.462 126.27 295.423 126.085 295.499C125.901 295.576 125.778 295.753 125.773 295.953C126.025 306.473 127.544 316.923 130.299 327.079C132.76 336.151 136.165 344.867 139.312 353.709C141.558 360.12 143.471 366.644 145.043 373.253C147.783 384.534 148.867 395.806 149.824 407.345C153.709 454.187 160.046 501.036 158.079 548.14C157.834 554.009 157.462 559.872 156.964 565.728C156.722 568.55 156.459 571.372 156.146 574.187C155.832 575.901 155.756 577.651 155.923 579.385C156.529 582.983 159.544 583.142 162.648 583.47C166.358 583.861 170.113 584.406 171.905 580.518C173.213 577.68 173.725 574.392 174.318 571.344C175.145 567.09 175.86 562.813 176.547 558.534C181.201 529.575 184.696 500.408 187.826 471.25C191.431 437.668 194.58 403.934 195.552 370.159C195.652 366.704 195.719 363.249 195.753 359.793L194.771 359.926C206.873 391.933 216.606 424.787 223.894 458.221C231.503 493.392 236.271 529.309 236.593 565.326C236.614 567.743 236.615 570.16 236.595 572.578C236.576 574.854 236.195 577.381 236.541 579.628C236.907 581.878 238.864 583.521 241.144 583.493C244.949 583.703 251.063 584.544 252.095 579.666C252.228 579.038 251.265 578.77 251.131 579.4Z" fill="black"/>
<path d="M249.956 582.793C249.637 585.837 251.489 589.594 253.223 592.115C254.743 594.285 256.971 595.857 259.524 596.563C262.277 597.288 265.11 597.659 267.957 597.667C270.21 597.673 272.565 597.549 274.577 598.566C276.035 599.284 277.149 600.551 277.675 602.089C278.253 603.726 277.609 606.02 275.882 606.209C274.314 606.381 272.069 606.484 271.08 606.484C261.205 606.796 254.694 606.531 246.086 606.313C245.609 606.354 245.132 606.229 244.736 605.96C244.216 605.508 244.268 604.706 244.297 604.017C244.41 603.014 244.156 602.004 243.584 601.173C242.958 600.343 241.79 600.153 240.934 600.742C239.583 601.929 240.69 605.503 239 606.117C238.726 606.216 235.673 606.148 233.783 606.071C233.037 606.04 232.43 605.46 232.365 604.717C232.006 600.828 232.325 595.933 234.065 592.554C234.931 590.873 236.229 589.453 237.173 587.815C238.224 586.325 238.767 584.536 238.723 582.713L249.956 582.793Z" fill="black"/>
<path d="M169.076 583.023C168.757 586.067 170.609 589.825 172.344 592.346C173.863 594.515 176.091 596.088 178.644 596.794C181.397 597.519 184.231 597.89 187.077 597.898C189.33 597.904 191.686 597.78 193.697 598.796C195.155 599.514 196.27 600.781 196.796 602.319C197.374 603.957 196.729 606.251 195.003 606.44C193.434 606.611 191.19 606.715 190.201 606.715C180.325 607.027 173.814 606.762 165.206 606.544C164.729 606.584 164.253 606.46 163.856 606.191C163.336 605.739 163.388 604.936 163.417 604.248C163.53 603.245 163.277 602.235 162.704 601.403C162.079 600.573 160.91 600.384 160.054 600.973C158.703 602.16 159.811 605.734 158.121 606.347C157.847 606.447 154.793 606.378 152.903 606.302C152.158 606.27 151.551 605.691 151.485 604.947C151.127 601.059 151.445 596.164 153.186 592.784C154.051 591.104 155.35 589.683 156.294 588.045C157.359 586.209 157.911 584.119 157.889 581.995L163.129 583.237L169.076 583.023Z" fill="black"/>
<circle cx="241.02" cy="93.8821" r="1.35151" fill="black"/>
<path d="M236.844 89.9774C237.274 88.9955 238.081 88.2278 239.083 87.847C240.085 87.4662 241.199 87.5042 242.172 87.9524C243.067 88.3137 243.456 86.8634 242.571 86.506C239.881 85.3906 236.789 86.5856 235.549 89.2203C235.131 90.0858 236.424 90.8474 236.844 89.9774V89.9774Z" fill="black"/>
<path d="M221.471 87.9989C221.003 87.1084 220.105 86.5259 219.101 86.4614C216.759 86.226 215.029 88.3665 214.573 89.1751C213.789 90.6282 213.415 92.2672 213.49 93.9166C213.521 95.5433 214.345 97.0524 215.696 97.959C217.062 98.7887 219.891 99.0638 221.024 97.4023L221.471 87.9989Z" fill="white"/>
<path d="M221.903 87.7465C220.887 85.796 218.359 85.5606 216.568 86.5371C214.516 87.8016 213.206 89.9835 213.054 92.3889C212.776 94.801 213.496 97.4721 215.85 98.6022C217.677 99.5749 219.926 99.2305 221.378 97.7558C221.795 97.2698 221.091 96.5594 220.671 97.0487C219.528 98.2096 217.755 98.474 216.324 97.6967C214.134 96.6647 213.736 94.0878 214.121 91.9513C214.306 90.7413 214.806 89.6012 215.57 88.6451C216.828 87.1755 219.776 85.8255 221.039 88.2512C221.337 88.8222 222.2 88.3172 221.903 87.7465V87.7465Z" fill="black"/>
<path d="M219.637 89.4233C218.347 88.9862 216.92 89.3925 216.054 90.4442C215.209 91.4596 214.947 92.8391 215.362 94.0934C215.576 94.6952 216.543 94.4359 216.326 93.8275C215.965 92.9251 216.144 91.8963 216.788 91.1687C217.433 90.441 218.432 90.1388 219.372 90.3875C219.634 90.4501 219.898 90.2937 219.97 90.0338C220.042 89.7739 219.895 89.5039 219.637 89.4233V89.4233Z" fill="black"/>
<path d="M250.671 78.5789C249.129 78.9542 247.548 79.1455 245.961 79.1489C236.491 79.4289 227.511 80.0489 218.501 86.1789V86.1789C215.806 83.0872 214.67 78.9352 215.414 74.9022C216.158 70.8693 218.701 67.396 222.321 65.4689C222.054 65.1453 221.909 64.7384 221.911 64.3189C221.906 63.3056 222.713 62.475 223.727 62.4504C224.74 62.4259 225.586 63.2165 225.631 64.2289C231.617 62.879 237.759 65.7445 240.571 71.1989C242.771 71.5689 244.971 71.9489 247.171 72.3189C248.214 72.4551 249.246 72.6623 250.261 72.9389C251.651 73.3589 253.021 74.0989 253.171 75.2389C253.381 76.9089 252.521 78.0089 250.671 78.5789Z" fill="#6D44FF"/>
<path d="M237.232 109.298C238.108 109.215 238.973 109.542 239.575 110.184C239.988 110.584 240.886 112.099 239.586 112.063C239.07 112.049 238.439 111.494 238.026 111.223C237.472 110.86 235.816 109.802 237.232 109.298C237.834 109.084 237.574 108.117 236.966 108.334C236.333 108.51 235.858 109.035 235.747 109.683C235.636 110.331 235.91 110.984 236.448 111.361C237.34 112.072 238.819 113.281 240.046 113.045C241.404 112.784 241.483 111.238 240.896 110.229C240.078 108.873 238.536 108.129 236.966 108.334C236.333 108.445 236.601 109.409 237.232 109.298Z" fill="black"/>
<path d="M226.454 188.389C226.273 186.584 226.86 184.787 228.072 183.439C229.284 182.09 231.009 181.315 232.822 181.303C233.88 181.326 234.936 181.408 235.985 181.55C241.243 182.169 245.227 183.491 250.467 184.59C254.84 185.507 256.939 184.472 257.726 181.686C259.255 176.272 261.69 163.669 262.926 159.119C263.508 156.976 264.621 153.127 262.162 150.6C260.965 149.37 258.674 148.685 257.032 148.186C243.197 144.119 229.601 139.282 216.306 133.698C215.897 133.529 215.431 133.579 215.067 133.83C213.53 134.867 210.461 136.145 207.842 135.083C204.422 133.697 202.793 132.332 201.623 130.692C201.399 130.371 201.044 130.166 200.654 130.132C200.263 130.098 199.878 130.239 199.602 130.517C193.517 136.724 184.265 143.032 177.045 149.244C133.091 184.954 114.212 244.547 123.783 292.065C127.645 305.162 169.958 308.609 187.085 308.365C199.114 308.193 235.275 310.871 245.685 298.11C256.431 285.43 254.779 268.026 249.983 250.581C244.379 230.197 228.413 209.436 226.454 188.389Z" fill="#6D44FF"/>
<path d="M181.543 255.81C185.639 262.537 190.12 269.816 195.252 277.737C200.643 286.058 215.148 304.075 223.326 309.682C232.593 316.035 259.79 325.69 298.008 327.212C301.915 327.69 303.456 328.158 312.543 334.738C316.263 337.432 323.744 340.278 327.922 340.604L337.338 341.715C338.696 341.821 344.019 342.364 345.643 341.751C346.625 341.478 347.156 339.257 342.962 338.838C330.453 337.588 330.92 335.655 330.92 335.655C331.076 334.595 334.48 335.177 335.536 335.288C339.108 335.664 341.524 335.822 344.983 336.239C347.665 336.563 349.949 336.826 350.187 335.234C350.248 334.31 349.779 333.867 347.973 333.646C342.896 333.024 338.423 332.643 333.385 331.756C332.577 331.6 332.108 330.687 332.684 330.123C333.724 329.202 345.373 331.409 349.201 331.751C349.801 331.805 351.028 331.863 351.377 330.871C351.51 330.475 351.469 330.042 351.265 329.679C351.06 329.315 350.711 329.056 350.303 328.965C349.308 328.702 347.415 328.41 346.27 328.239C341.885 327.586 337.654 327.387 333.251 326.877C332.892 326.861 332.595 326.591 332.545 326.235C332.496 325.879 332.707 325.538 333.048 325.425C334.185 325.129 341.977 325.961 345.84 326.129C346.553 326.192 347.268 326.042 347.896 325.699C349.015 325.128 348.838 323.78 347.865 323.044C347.257 322.731 346.592 322.543 345.91 322.492C339.722 321.596 328.392 321.699 322.846 320.782C322.548 320.732 322.332 320.473 322.335 320.171C322.339 319.87 322.561 319.616 322.859 319.573C325.061 319.252 326.7 319.516 329.84 319.04C332.675 318.61 333.543 318.142 333.448 317.193C333.319 315.905 331.581 315.771 330.961 315.714C328.522 315.533 326.071 315.617 323.65 315.965C321.587 316.215 319.275 316.741 316.944 317.236C312.111 318.262 306.296 316.573 300.071 315.18C273.313 308.489 248.977 297.335 241.117 291.515C231.77 284.594 225.684 274.214 220.26 263.927C216.237 256.299 212.583 249.012 209.205 241.781L181.543 255.81Z" fill="white"/>
<path fill-rule="evenodd" clip-rule="evenodd" d="M337.853 342.26C339.614 342.41 341.453 342.541 342.968 342.541C343.915 342.587 344.863 342.483 345.777 342.233C346.458 342.019 346.896 341.358 346.828 340.648C346.777 340.064 346.304 338.669 343.012 338.341C333.32 337.372 331.707 336.023 331.455 335.697C331.655 335.547 332.401 335.401 334.982 335.725C335.179 335.75 335.35 335.772 335.484 335.785C336.939 335.939 338.202 336.056 339.421 336.168L339.477 336.173C341.234 336.336 342.899 336.491 344.923 336.735L344.924 336.735C347.724 337.073 350.369 337.394 350.686 335.268C350.784 333.792 349.697 333.354 348.034 333.15C346.73 332.989 345.466 332.846 344.222 332.705L343.862 332.664C340.373 332.271 337.077 331.899 333.479 331.265C333.235 331.223 333.031 331.053 332.946 330.82C332.905 330.715 332.925 330.596 332.998 330.51C333.778 330.052 339.984 330.966 343.74 331.52L343.802 331.529C346.025 331.858 347.945 332.141 349.156 332.249C350.619 332.381 351.519 331.971 351.848 331.036C352.026 330.524 351.981 329.96 351.726 329.482C351.455 328.98 350.985 328.617 350.431 328.482C349.678 328.282 348.341 328.041 346.343 327.745C343.717 327.354 341.101 327.121 338.571 326.895L338.534 326.892L338.499 326.889C336.807 326.738 335.057 326.583 333.317 326.382C333.168 326.381 333.046 326.266 333.037 326.117C333.022 326.023 333.081 325.932 333.174 325.908C335.6 325.876 338.024 325.993 340.435 326.259C342.375 326.41 344.38 326.566 345.818 326.629C346.617 326.692 347.417 326.524 348.124 326.145C348.707 325.873 349.101 325.312 349.16 324.671C349.195 323.871 348.821 323.108 348.168 322.646C347.496 322.268 346.749 322.046 345.981 321.996C342.926 321.555 338.604 321.353 334.423 321.157L334.389 321.156C330.125 320.956 325.721 320.75 322.927 320.288C322.9 320.287 322.874 320.275 322.857 320.254C322.839 320.233 322.831 320.205 322.835 320.178C322.832 320.15 322.84 320.122 322.859 320.101C322.877 320.08 322.904 320.068 322.932 320.068C323.846 319.949 324.766 319.884 325.688 319.874C327.103 319.854 328.515 319.74 329.916 319.533C332.216 319.186 334.107 318.766 333.945 317.143C333.778 315.467 331.718 315.28 331.006 315.216C328.532 315.032 326.045 315.116 323.589 315.468C321.783 315.688 319.838 316.104 317.78 316.545L317.777 316.546L316.84 316.746C312.776 317.61 307.888 316.475 302.715 315.274L302.692 315.269C301.863 315.075 301.025 314.881 300.192 314.695C272.453 307.759 248.72 296.523 241.414 291.114C231.946 284.102 225.759 273.283 220.702 263.694C216.522 255.768 212.91 248.531 209.659 241.569L209.44 241.101L180.835 255.61L181.116 256.071C185.154 262.702 189.611 269.949 194.833 278.008C200.07 286.092 214.758 304.414 223.043 310.094C228.415 313.777 238.124 317.657 249.681 320.741C265.471 324.803 281.654 327.138 297.948 327.707C301.716 328.169 303.205 328.594 312.25 335.144C316.021 337.874 323.619 340.771 327.864 341.1L337.299 342.213L337.853 342.26ZM195.671 277.465C190.578 269.603 186.211 262.511 182.251 256.012L208.971 242.46C212.173 249.293 215.724 256.398 219.817 264.16C224.926 273.848 231.183 284.781 240.819 291.916C248.189 297.374 272.079 308.697 299.961 315.668C300.715 315.837 301.463 316.01 302.203 316.182L302.465 316.242L302.479 316.246C307.769 317.474 312.766 318.634 317.047 317.725L317.986 317.524C320.023 317.087 321.947 316.675 323.71 316.46C326.108 316.118 328.536 316.036 330.952 316.215C331.842 316.296 332.874 316.486 332.951 317.242C332.99 317.633 332.779 318.089 329.765 318.545C328.405 318.746 327.033 318.856 325.658 318.874C324.698 318.885 323.739 318.953 322.788 319.077C322.245 319.156 321.841 319.618 321.835 320.166C321.83 320.714 322.224 321.184 322.764 321.275C326.618 321.763 330.493 322.057 334.376 322.157L334.41 322.158C338.556 322.352 342.84 322.552 345.863 322.99C346.452 323.039 347.028 323.192 347.564 323.443C347.94 323.7 348.165 324.127 348.164 324.583C348.133 324.88 347.943 325.137 347.668 325.254C347.118 325.561 346.488 325.692 345.861 325.629C344.441 325.568 342.444 325.412 340.513 325.262C336.287 324.934 333.668 324.747 332.922 324.941C332.367 325.085 331.995 325.606 332.039 326.178C332.076 326.807 332.566 327.315 333.193 327.374C334.966 327.579 336.735 327.737 338.446 327.888C340.973 328.113 343.585 328.345 346.197 328.734L346.227 328.738C346.976 328.85 349.125 329.17 350.175 329.449C350.459 329.512 350.702 329.694 350.842 329.95C350.966 330.182 350.988 330.455 350.905 330.704C350.742 331.166 350.212 331.343 349.246 331.253C348.062 331.148 346.064 330.853 343.948 330.54C336.4 329.427 333.116 329.069 332.333 329.766C331.973 330.113 331.839 330.633 331.988 331.11C332.182 331.701 332.685 332.138 333.297 332.248C336.911 332.885 340.203 333.257 343.683 333.651L343.75 333.659L343.884 333.674C345.198 333.822 346.533 333.973 347.913 334.142C349.741 334.366 349.716 334.772 349.693 335.159L349.693 335.16C349.537 336.206 347.751 336.07 345.042 335.742C343.003 335.496 341.33 335.341 339.565 335.178L339.513 335.173L339.312 335.154C338.158 335.047 336.959 334.935 335.589 334.791L335.107 334.733L335.101 334.732C333.321 334.508 330.633 334.171 330.434 335.538C330.39 335.789 330.457 336.046 330.618 336.243C331.548 337.556 335.8 338.625 342.913 339.335C344.996 339.544 345.787 340.219 345.831 340.734C345.856 340.98 345.703 341.21 345.466 341.283C344.122 341.79 339.628 341.408 337.938 341.263L327.961 340.106C323.84 339.784 316.49 336.98 312.835 334.333C303.591 327.639 302.037 327.2 298.028 326.711C259.877 325.193 232.621 315.449 223.608 309.27C215.426 303.66 200.871 285.49 195.671 277.465Z" fill="black"/>
<path d="M160.011 231.604C164.562 239.074 168.891 246.744 173.694 254.054C175.164 256.291 176.991 257.75 179.794 257.372C183.198 256.913 186.603 254.761 189.644 253.285C193.296 251.513 196.903 249.652 200.465 247.702C203.388 246.104 207.122 244.598 209.398 242.08C211.609 239.635 210.683 236.854 209.703 234.056C208.246 229.898 206.782 225.743 205.31 221.59L195.387 193.427C195.175 192.824 194.208 193.083 194.423 193.693L203.858 220.471C205.485 225.088 207.123 229.701 208.738 234.322C209.724 237.144 210.52 239.881 207.938 242.102C206.211 243.402 204.362 244.532 202.418 245.476C198.607 247.618 194.742 249.658 190.822 251.597C188.723 252.636 186.609 253.644 184.481 254.622C181.838 255.838 178.508 257.622 175.901 255.28C174.264 253.809 173.229 251.379 172.106 249.537L168.533 243.67L160.875 231.099C160.54 230.551 159.675 231.052 160.011 231.604L160.011 231.604Z" fill="white"/>
<path fill-rule="evenodd" clip-rule="evenodd" d="M162.292 577.071C162.315 577.074 162.338 577.075 162.361 577.075H162.361C162.623 577.075 162.841 576.872 162.859 576.61C162.877 576.348 162.689 576.116 162.429 576.08C160.485 575.836 158.576 575.363 156.742 574.671C156.488 574.564 156.196 574.683 156.088 574.936C155.981 575.189 156.098 575.482 156.351 575.591C158.264 576.323 160.259 576.82 162.292 577.071ZM165.326 577.348C165.794 577.369 166.276 577.38 166.772 577.38C168.322 577.38 169.869 577.269 171.403 577.049C171.58 577.024 171.73 576.906 171.796 576.74C171.862 576.574 171.835 576.385 171.725 576.245C171.614 576.104 171.437 576.033 171.26 576.059C169.31 576.335 167.338 576.432 165.37 576.35C165.095 576.341 164.864 576.552 164.848 576.826C164.842 576.959 164.889 577.088 164.979 577.186C165.068 577.284 165.193 577.342 165.326 577.348Z" fill="black"/>
<path fill-rule="evenodd" clip-rule="evenodd" d="M242.603 577.185C242.617 577.186 242.632 577.187 242.646 577.187V577.187C242.913 577.186 243.133 576.975 243.144 576.708C243.155 576.441 242.955 576.212 242.688 576.189C240.734 576.046 238.803 575.673 236.936 575.078C236.677 574.984 236.389 575.117 236.295 575.376C236.2 575.636 236.333 575.923 236.593 576.018C238.542 576.648 240.56 577.04 242.603 577.185ZM245.141 576.805C245.142 577.081 245.366 577.304 245.643 577.303H245.646C247.679 577.286 249.706 577.08 251.7 576.686C251.971 576.632 252.147 576.369 252.094 576.099C252.04 575.828 251.777 575.652 251.506 575.705C249.573 576.087 247.609 576.287 245.639 576.303C245.363 576.304 245.14 576.529 245.141 576.805Z" fill="black"/>
<path d="M439.171 566.684C436.731 574.944 431.521 589.634 429.071 597.894C428.921 598.414 428.741 599.044 428.531 599.724C428.08 601.526 427.351 603.247 426.371 604.824C425.411 605.955 423.984 606.579 422.503 606.517C421.021 606.454 419.652 605.711 418.791 604.504C417.621 602.644 418.261 598.994 418.731 596.884C418.861 596.284 418.971 595.804 419.031 595.534C421.731 583.284 425.351 566.514 428.051 554.264L439.171 566.684Z" fill="white"/>
<path fill-rule="evenodd" clip-rule="evenodd" d="M422.461 607.017C422.567 607.023 422.67 607.026 422.775 607.026C424.325 607.044 425.796 606.346 426.763 605.135C427.802 603.519 428.561 601.74 429.008 599.871C429.217 599.195 429.398 598.568 429.55 598.036C430.763 593.948 432.689 588.172 434.552 582.587L434.562 582.557C436.46 576.869 438.421 570.99 439.651 566.825L439.73 566.558L427.773 553.203L427.563 554.156C426.212 560.281 424.632 567.537 423.052 574.793L422.989 575.083C421.43 582.24 419.874 589.383 418.542 595.427L418.243 596.776C417.38 600.65 417.421 603.265 418.368 604.77C419.298 606.126 420.817 606.961 422.461 607.017ZM424.305 573.74C425.712 567.283 427.107 560.879 428.33 555.324L438.613 566.81C437.38 570.948 435.461 576.702 433.604 582.271C431.738 587.864 429.809 593.648 428.585 597.771L428.579 597.793C428.433 598.303 428.257 598.916 428.052 599.579C427.6 601.314 426.903 602.975 425.981 604.513C425.149 605.559 423.851 606.123 422.518 606.018C421.199 605.973 419.977 605.315 419.214 604.238C418.426 602.985 418.428 600.547 419.219 596.989L419.519 595.642C420.87 589.517 422.45 582.262 424.03 575.006L424.03 575.005L424.305 573.74Z" fill="black"/>
<path d="M463.151 577.184C460.491 585.424 458.331 594.144 456.381 600.714C456.181 601.384 455.891 602.444 455.521 603.634C454.851 605.834 453.901 608.464 452.781 609.774C450.871 612.024 446.611 610.864 445.431 608.784C444.371 606.934 444.681 604.144 444.971 602.494C445.051 602.094 445.121 601.764 445.171 601.534C446.941 593.514 448.961 583.864 451.111 573.754L463.151 577.184Z" fill="white"/>
<path fill-rule="evenodd" clip-rule="evenodd" d="M449.298 611.473C449.491 611.49 449.679 611.5 449.865 611.5C451.117 611.55 452.327 611.036 453.16 610.1C454.116 608.982 455.044 606.914 455.998 603.783C456.238 603.011 456.445 602.293 456.616 601.7L456.625 601.667L456.861 600.857C457.596 598.378 458.361 595.598 459.17 592.654C460.483 587.878 461.971 582.465 463.626 577.337L463.785 576.845L450.733 573.126L449.038 581.114C447.482 588.465 446.01 595.409 444.683 601.428C444.632 601.66 444.562 601.993 444.479 602.408C443.968 605.311 444.143 607.54 444.996 609.032C445.978 610.464 447.565 611.365 449.298 611.473ZM450.017 581.321L451.489 574.382L462.517 577.523C460.925 582.504 459.491 587.715 458.22 592.335L458.205 592.389C457.398 595.327 456.634 598.104 455.902 600.571L455.663 601.391C455.493 601.985 455.285 602.707 455.042 603.489C454.527 605.619 453.632 607.639 452.4 609.451C451.622 610.259 450.501 610.641 449.392 610.477C447.984 610.394 446.688 609.682 445.865 608.536C445.14 607.27 445.001 605.21 445.461 602.592C445.54 602.196 445.611 601.868 445.659 601.642C446.988 595.62 448.459 588.674 450.017 581.321Z" fill="black"/>
<path d="M525.461 573.488C527.341 581.948 529.891 593.184 531.231 599.924C531.331 600.444 531.451 601.064 531.611 601.734C531.926 603.654 532.694 605.471 533.851 607.034C535.617 608.949 538.595 609.087 540.531 607.344C542.181 605.504 541.611 601.374 541.451 600.144C541.421 599.914 541.391 599.684 541.361 599.444C540.231 590.294 538.881 578.424 537.581 567.444L525.461 573.488Z" fill="white"/>
<path fill-rule="evenodd" clip-rule="evenodd" d="M537.372 609.066H537.381C538.695 609.1 539.966 608.599 540.903 607.678C542.68 605.697 542.134 601.515 541.947 600.08L541.857 599.383C541.13 593.499 540.326 586.61 539.476 579.315C539.012 575.334 538.541 571.304 538.077 567.386L537.994 566.68L524.888 573.214L526.135 578.806C527.788 586.209 529.662 594.601 530.746 600.053L530.746 600.054C530.847 600.573 530.966 601.188 531.122 601.843C531.435 603.852 532.245 605.752 533.479 607.368C534.473 608.466 535.891 609.084 537.372 609.066ZM527.111 578.587L526.034 573.76L537.168 568.209C537.58 571.694 537.996 575.261 538.408 578.794L538.483 579.431C539.333 586.727 540.137 593.618 540.865 599.507L540.963 600.271C541.405 603.655 541.134 605.922 540.159 607.008C539.414 607.722 538.412 608.103 537.381 608.066H537.374C536.176 608.083 535.028 607.585 534.221 606.698C533.106 605.205 532.377 603.461 532.097 601.618C531.948 600.995 531.835 600.416 531.733 599.888L531.721 599.826C530.641 594.394 528.766 585.996 527.111 578.587Z" fill="black"/>
<path d="M498.961 579.564C500.551 587.154 502.011 592.654 503.201 598.654C503.411 599.704 503.871 602.044 504.491 604.324C504.877 606.049 505.517 607.708 506.391 609.244C508.081 611.664 510.711 611.284 512.411 610.224C514.331 609.034 514.331 606.004 514.101 603.914C514.021 603.084 513.901 602.414 513.861 602.054C512.971 594.874 512.051 586.954 511.011 578.014L498.961 579.564Z" fill="white"/>
<path fill-rule="evenodd" clip-rule="evenodd" d="M505.981 609.531C506.794 610.791 508.193 611.551 509.694 611.548C510.751 611.53 511.783 611.219 512.674 610.649C514.334 609.621 514.982 607.336 514.599 603.866C514.546 603.323 514.477 602.846 514.423 602.477C514.395 602.284 514.371 602.122 514.357 601.992C513.49 594.993 512.607 587.407 511.585 578.622L511.584 578.613L511.449 577.453L498.361 579.138L498.472 579.667C499.234 583.304 499.954 586.414 500.652 589.421C501.392 592.614 502.091 595.631 502.71 598.752L502.736 598.877C502.953 599.971 503.407 602.245 504.008 604.455C504.395 606.24 505.061 607.953 505.981 609.531ZM501.626 589.196C500.964 586.341 500.281 583.393 499.562 579.991L510.572 578.574L510.591 578.729L510.607 578.864C511.623 587.597 512.501 595.147 513.364 602.11C513.378 602.238 513.402 602.406 513.432 602.607L513.434 602.621C513.486 602.977 513.552 603.437 513.604 603.969C513.836 606.073 513.772 608.793 512.146 609.8C510.616 610.753 508.3 611.105 506.798 608.955C505.953 607.469 505.337 605.864 504.973 604.194C504.382 602.016 503.932 599.764 503.716 598.682L503.691 598.557C503.069 595.42 502.368 592.397 501.626 589.196Z" fill="black"/>
<path d="M440.195 156.072C441.084 152.983 444.252 149.672 446.633 147.512C447.645 148.225 448.997 148.218 450.003 147.497C450.849 146.667 451.179 145.443 450.865 144.301C450.499 143.137 449.68 142.171 448.592 141.62C447.46 140.988 446.068 141.055 445.001 141.792C443.515 142.885 443.632 144.569 444.884 145.877C442.223 149.439 437.49 151.078 433.05 150.834L437.04 154.618L440.195 156.072Z" fill="white"/>
<path fill-rule="evenodd" clip-rule="evenodd" d="M439.986 156.527C440.051 156.557 440.123 156.572 440.195 156.572L440.195 156.573C440.418 156.573 440.614 156.426 440.675 156.211C441.487 153.389 444.342 150.301 446.702 148.127C447.858 148.778 449.293 148.674 450.343 147.863C451.328 146.908 451.713 145.493 451.348 144.171C450.944 142.872 450.032 141.791 448.819 141.175C447.518 140.46 445.925 140.543 444.705 141.389C443.986 141.875 443.518 142.653 443.426 143.516C443.379 144.384 443.67 145.237 444.237 145.896C441.805 148.89 437.561 150.571 433.078 150.334C432.868 150.32 432.672 150.441 432.591 150.635C432.508 150.828 432.554 151.051 432.706 151.196L436.696 154.981C436.735 155.019 436.781 155.05 436.83 155.072L439.986 156.527ZM439.894 155.383L437.324 154.198L434.325 151.354C438.574 151.378 442.605 149.474 445.285 146.176C445.431 145.981 445.414 145.708 445.246 145.532C444.707 145.036 444.408 144.334 444.422 143.603C444.494 143.028 444.814 142.513 445.297 142.195C446.211 141.567 447.403 141.517 448.366 142.066C449.329 142.55 450.056 143.403 450.382 144.431C450.645 145.395 450.37 146.426 449.662 147.13C448.825 147.69 447.729 147.676 446.908 147.094C446.717 146.969 446.466 146.989 446.297 147.142C443.94 149.28 440.988 152.392 439.894 155.383Z" fill="black"/>
<path d="M453.621 153.431C450.826 155.004 448.261 156.956 445.999 159.231C444.332 161.27 443.902 164.053 444.877 166.5C445.534 168.901 447.616 170.64 450.095 170.858C452.539 170.918 454.964 170.423 457.188 169.409C464.158 166.5 467.542 169.297 468.454 172.822C469.57 177.138 467.318 181.009 463.611 181.616C459.302 182.323 458.027 180.342 453.621 178.241C450.122 176.573 445.528 176.775 444.858 180.236C440.33 213.248 445.543 336.492 445.824 367.901C445.928 379.642 446.061 391.571 449.467 402.807C453.805 417.118 462.801 428.721 473.134 439.627C489.636 456.257 520.684 469.006 535.708 486.982C546.155 499.483 550.226 508.497 552.261 524.488C555.173 547.363 547.028 567.52 521.298 575.464C500.203 581.977 480.728 579.83 461.829 576.824C448.53 574.71 438.203 567.327 429.853 556.762C418.132 541.934 417.722 516.031 419.489 501.88C422.549 477.365 424.083 461.148 427.144 436.633C430.859 413.013 430.603 388.97 430.239 365.063C429.804 336.393 433.398 217.824 429.328 187.008C428.2 180.109 427.065 179.342 419.421 176.201C418.069 175.583 417.335 174.102 417.663 172.652C417.835 172.03 418.09 169.611 415.654 169.407C415.035 169.367 414.424 169.568 413.951 169.969C413.482 170.502 413.185 171.165 413.099 171.87C412.837 173.174 409.556 170.07 408.591 169.173C403.906 164.818 400.534 158.883 402.856 152.584C403.765 150.196 405.37 148.136 407.462 146.669C413.08 142.656 420.304 143.135 426.248 145.851C430.132 147.682 433.599 150.288 436.438 153.509C438.6 155.839 442.038 156.465 444.883 155.048C447.193 153.937 449.346 152.527 451.288 150.853C451.153 150.562 451.057 150.255 451.003 149.939C450.894 148.858 451.384 147.805 452.281 147.192C453.767 146.042 455.887 146.22 457.16 147.602C457.922 148.235 458.385 149.158 458.437 150.148C458.488 151.138 458.123 152.104 457.431 152.813C456.331 153.613 454.917 153.842 453.621 153.431Z" fill="white"/>
<path fill-rule="evenodd" clip-rule="evenodd" d="M461.75 577.319C471.709 579.084 481.792 580.054 491.905 580.221C501.911 580.296 511.872 578.854 521.446 575.942C544.942 568.687 556.062 550.392 552.757 524.425C550.732 508.509 546.682 499.333 536.092 486.662C527.929 476.895 514.969 468.6 502.435 460.578L502.421 460.57C491.907 453.84 481.037 446.883 473.496 439.283C464.443 429.727 454.566 417.903 449.946 402.661C446.533 391.404 446.426 379.453 446.324 367.897C446.254 360.117 445.891 347.019 445.431 330.437L445.429 330.379L445.428 330.357C444.045 280.467 441.954 205.089 445.349 180.33C445.506 179.409 446.101 178.622 446.945 178.22C448.536 177.421 451.131 177.609 453.407 178.693C454.598 179.261 455.565 179.825 456.419 180.323L456.443 180.337C458.741 181.681 460.404 182.653 463.692 182.11C465.48 181.819 467.06 180.781 468.036 179.254C469.239 177.29 469.567 174.913 468.938 172.697C468.518 170.847 467.306 169.275 465.624 168.398C463.409 167.295 460.504 167.481 456.995 168.949C454.845 169.932 452.499 170.414 450.135 170.36C447.855 170.158 445.944 168.553 445.352 166.342C444.432 164.07 444.819 161.478 446.363 159.574C448.541 157.389 451 155.504 453.674 153.967C455.091 154.357 456.609 154.063 457.778 153.172C458.516 152.463 458.935 151.484 458.94 150.46C458.928 149.239 458.411 148.076 457.513 147.248C456.068 145.678 453.659 145.48 451.978 146.794C450.936 147.516 450.372 148.749 450.508 150.009C450.545 150.248 450.606 150.483 450.691 150.709C448.85 152.25 446.826 153.556 444.663 154.598C442.017 155.907 438.826 155.328 436.808 153.173C433.923 149.903 430.4 147.257 426.456 145.397C419.556 142.242 412.345 142.566 407.17 146.262C404.993 147.783 403.326 149.927 402.387 152.411C399.598 159.979 404.864 166.391 408.25 169.539L408.348 169.63C410.976 172.075 412.241 172.89 413.022 172.642C413.323 172.544 413.542 172.285 413.588 171.972C413.653 171.374 413.894 170.809 414.279 170.347C414.652 170.037 415.128 169.879 415.613 169.905C416.132 169.905 416.622 170.147 416.939 170.559C417.273 171.174 417.356 171.895 417.169 172.571C416.795 174.252 417.657 175.964 419.23 176.664C426.74 179.749 427.741 180.401 428.832 187.074C431.672 208.567 430.777 272.681 430.124 319.51L430.123 319.543C429.847 339.336 429.609 356.429 429.74 365.072C430.077 387.229 430.458 412.343 426.648 436.572C425.121 448.801 423.954 459.136 422.827 469.127L422.816 469.226C421.688 479.23 420.521 489.574 418.993 501.819C416.903 518.555 418.391 543.068 429.46 557.072C438.652 568.701 449.214 575.324 461.75 577.319ZM415.697 168.908C415.627 168.903 415.558 168.9 415.488 168.9V168.9C414.804 168.905 414.144 169.15 413.623 169.591C413.079 170.162 412.731 170.892 412.629 171.674C412.312 171.601 411.429 171.132 409.03 168.898L408.932 168.807C405.727 165.828 400.737 159.782 403.325 152.757C404.195 150.461 405.738 148.481 407.752 147.077C412.629 143.59 419.468 143.302 426.04 146.307C429.861 148.111 433.274 150.676 436.068 153.845C438.385 156.327 442.055 156.999 445.101 155.498C447.452 154.367 449.643 152.931 451.619 151.228L451.892 150.986L451.746 150.652C451.629 150.403 451.546 150.139 451.498 149.869C451.417 148.968 451.833 148.095 452.583 147.591C453.871 146.594 455.708 146.753 456.806 147.955C457.509 148.598 457.918 149.5 457.94 150.453C457.937 151.208 457.627 151.93 457.083 152.454C456.115 153.118 454.896 153.303 453.775 152.955L453.58 152.892L453.396 152.985C450.546 154.581 447.934 156.568 445.634 158.888C443.836 161.06 443.364 164.04 444.404 166.662C445.117 169.257 447.373 171.131 450.055 171.356C452.578 171.425 455.084 170.917 457.38 169.871C460.569 168.541 463.264 168.34 465.18 169.293C466.602 170.042 467.622 171.378 467.969 172.947C468.528 174.891 468.248 176.98 467.198 178.708C466.374 179.998 465.04 180.876 463.53 181.123C460.594 181.604 459.222 180.803 456.948 179.475L456.947 179.474L456.941 179.47C456.066 178.96 455.074 178.38 453.836 177.79C451.258 176.561 448.375 176.378 446.495 177.327C445.368 177.875 444.574 178.933 444.363 180.167C440.952 205.038 443.044 280.484 444.43 330.408L444.439 330.726C444.895 347.179 445.255 360.175 445.324 367.907C445.427 379.533 445.535 391.556 448.989 402.951C453.668 418.392 463.637 430.33 472.779 439.98C480.409 447.668 491.331 454.659 501.896 461.42L501.905 461.426C514.372 469.406 527.263 477.657 535.325 487.303C545.773 499.804 549.768 508.855 551.765 524.552C555.001 549.98 544.129 567.892 521.151 574.987C499.916 581.542 480.24 579.245 461.907 576.33C449.63 574.378 439.274 567.875 430.245 556.451C423.447 547.851 416.68 528.414 419.985 501.942C421.511 489.713 422.677 479.381 423.804 469.39L423.81 469.338C424.94 459.32 426.109 448.959 427.638 436.711C431.458 412.419 431.077 387.266 430.74 365.071L430.74 365.056C430.609 356.429 430.847 339.342 431.123 319.557L431.124 319.524C431.777 272.664 432.672 208.509 429.822 186.927C428.671 179.894 427.466 178.966 419.611 175.74C418.487 175.224 417.876 173.993 418.144 172.786C418.399 171.84 418.261 170.83 417.76 169.988C417.277 169.328 416.514 168.929 415.697 168.908Z" fill="black"/>
<path d="M402.104 157.774C405.434 159.508 409.523 158.681 411.917 155.789C414.478 152.554 414.109 147.891 411.072 145.098C411.072 145.098 406.905 146.44 404.897 149.059C403.04 151.581 402.059 154.642 402.104 157.774V157.774Z" fill="#A844FF"/>
<path d="M409.414 149.522C409.022 149.609 408.663 149.806 408.378 150.088C407.912 150.535 408.62 151.241 409.085 150.795C409.248 150.635 409.455 150.528 409.679 150.486C410.307 150.346 410.041 149.381 409.414 149.522H409.414Z" fill="white"/>
<circle cx="428.592" cy="156.312" r="1.5821" fill="black"/>
<path d="M539.638 491.967C557.43 492.795 572.891 504.452 578.582 521.329C578.779 521.939 579.745 521.678 579.546 521.064C573.726 503.759 557.876 491.805 539.638 490.967C538.995 490.944 538.996 491.944 539.638 491.967V491.967Z" fill="#A844FF"/>
<path d="M578.839 520.544C576.679 525.576 577.505 531.392 580.98 535.624C582.514 537.439 585.506 538.804 587.087 537.029C587.979 536.028 587.9 534.511 587.656 533.192C586.6 527.496 583.455 524.046 578.839 520.544" fill="#A844FF"/>
<path d="M443.236 213.601C445.185 213.044 447.274 213.775 448.449 215.427C449.449 217.03 449.113 219.124 447.662 220.334C446.308 221.178 444.644 221.365 443.137 220.841" fill="#A844FF"/>
<path d="M443.137 228.055C446.075 226.807 448.785 229.205 448.322 231.555C447.859 233.906 445.331 234.324 443.137 233.555" fill="#A844FF"/>
<path d="M443.308 241.046C445.969 240.295 449.423 242.202 449.423 245.515C449.423 248.594 446.483 250.036 443.176 249.582" fill="#A844FF"/>
<path d="M443.422 254.824C447.046 254.245 450.125 256.427 449.786 260.103C449.515 263.041 446.851 264.287 443.674 263.923" fill="#A844FF"/>
<path d="M443.69 268.929C448.098 267.847 451.84 272.484 448.87 275.865C447.611 276.927 445.055 277.185 443.69 277.118" fill="#A844FF"/>
<path d="M443.867 282.851C445.803 282.525 447.791 282.783 449.579 283.592C451.073 284.601 451.871 286.364 451.645 288.152C451.304 291.076 446.344 292.134 443.867 291.424" fill="#A844FF"/>
<path d="M444.421 297.639C445.943 297.497 448.958 297.247 450.582 298.703C452.454 300.304 452.807 303.063 451.399 305.084C450.015 306.871 446.661 307.748 444.421 307.221" fill="#A844FF"/>
<path d="M444.847 312.313C446.608 311.974 448.429 312.169 450.078 312.873C452.264 314.106 452.264 316.024 451.368 317.802C450.494 319.534 446.779 320.052 444.847 319.874" fill="#A844FF"/>
<path d="M444.847 326.427C446.437 326.427 448.953 326.018 450.694 327.211C452.51 328.63 452.967 331.189 451.754 333.148C450.47 335.053 447.277 335.168 445.509 335.017" fill="#A844FF"/>
<path d="M445.201 340.208C449.35 339.421 452.093 340.541 452.092 344.618C452.092 347.599 447.501 347.542 445.509 347.432" fill="#A844FF"/>
<path d="M464.651 481.855C462.933 481.265 461.943 477.988 461.402 476.515C460.666 474.512 459.938 472.513 460.867 470.427C462.202 467.725 463.812 465.168 465.671 462.796C468.687 458.674 470.575 463.671 471.552 466.067C472.401 468.137 473.106 470.262 473.662 472.429C473.994 473.737 474.927 476.335 474.171 477.624C473.482 478.8 471.099 479.622 469.939 480.16C468.419 480.864 466.271 482.031 464.518 481.837C463.879 481.766 463.884 482.767 464.518 482.837C466.069 483.008 467.78 482.172 469.168 481.588C471.068 480.93 472.85 479.97 474.443 478.743C476.697 476.692 474.538 471.597 473.783 469.276C473.031 466.964 471.149 459.424 467.833 459.7C465.484 459.895 463.574 464.018 462.523 465.67C461.179 467.781 459.245 470.208 459.381 472.861C459.632 474.81 460.216 476.702 461.107 478.454C461.771 479.982 462.658 482.226 464.385 482.819C464.995 483.029 465.257 482.063 464.651 481.855Z" fill="black"/>
<path d="M489.094 477.099C488.38 480.648 486.983 484.662 487.044 488.294C487.082 490.487 488.481 492.112 490.25 493.288C495.176 496.563 499.288 492.657 500.442 487.753C501.24 484.363 502.97 479.046 498.991 477.128C496.832 476.188 494.537 475.599 492.192 475.383C490.63 475.213 489.666 475.562 489.094 477.099C488.869 477.703 489.835 477.964 490.058 477.365C490.893 475.123 496.838 477.271 498.336 477.937C501.741 479.451 500.2 484.317 499.552 487.17C499.041 489.421 498.251 491.911 496.033 493.046C493.638 494.271 491.005 493.024 489.321 491.223C487.351 489.116 488.248 486.5 488.75 483.953C489.183 481.756 489.619 479.56 490.058 477.365C490.184 476.736 489.221 476.468 489.094 477.099Z" fill="black"/>
<path d="M434.874 508.848C436.601 512.006 438.124 516.022 440.512 518.726C441.965 520.37 444.089 520.694 446.198 520.445C451.692 519.796 452.727 514.59 450.651 510.18C449.272 507.25 446.958 501.544 442.864 502.34C440.741 502.926 438.722 503.838 436.879 505.044C435.303 505.948 434.218 506.783 434.824 508.728C435.015 509.341 435.98 509.08 435.788 508.463C435.038 506.053 441.449 503.573 443.13 503.305C446.232 502.81 448.194 507.568 449.36 509.832C450.307 511.672 451.191 513.758 450.653 515.877C449.963 518.597 447.251 519.614 444.723 519.516C441.832 519.404 440.704 517.367 439.437 515.069C438.202 512.828 436.969 510.586 435.738 508.343C435.429 507.778 434.565 508.282 434.874 508.848Z" fill="black"/>
<path d="M529.762 489.618C526.539 487.984 523.039 485.55 519.527 484.65C517.46 484.236 515.324 484.898 513.853 486.408C509.567 490.146 511.849 495.123 516.182 497.551C519.26 499.276 524.13 502.528 527.093 499.145C528.575 497.316 529.757 495.262 530.593 493.061C531.175 491.599 531.088 490.581 529.762 489.618C529.24 489.24 528.74 490.107 529.257 490.482C531.174 491.873 527.509 497.088 526.482 498.307C524.056 501.187 519.572 498.271 516.973 496.844C515.059 495.794 513.275 494.505 512.698 492.302C512.004 489.652 513.585 487.509 515.82 486.223C518.377 484.753 520.458 486.051 522.831 487.243C524.974 488.32 527.116 489.4 529.257 490.482C529.83 490.772 530.336 489.91 529.762 489.618Z" fill="black"/>
<path d="M444.434 445.129C447.97 444.48 452.274 444.297 455.58 442.864C457.746 441.925 458.747 439.718 459.065 437.468C459.829 432.064 454.894 429.963 450.288 430.619C446.863 431.107 441.039 431.458 440.71 435.885C440.668 438.135 440.943 440.379 441.529 442.552C441.898 444.153 442.519 445.188 444.301 445.147C444.57 445.137 444.784 444.916 444.784 444.647C444.784 444.377 444.57 444.156 444.301 444.147C441.804 444.204 441.518 437.661 441.71 435.885C442.07 432.564 446.911 432.175 449.574 431.738C451.724 431.385 454.108 431.12 456.051 432.371C458.413 433.892 458.512 436.778 457.616 439.152C456.568 441.926 454.302 442.276 451.714 442.76C449.199 443.231 446.684 443.699 444.168 444.164C443.536 444.28 443.803 445.244 444.434 445.129Z" fill="black"/>
<path d="M533.664 527.93C535.11 525.175 537.259 522.194 538.063 519.18C538.44 517.45 537.933 515.645 536.709 514.364C533.496 510.402 529.042 512.357 526.832 516.201C525.278 518.903 522.502 523.014 525.488 525.611C527.242 527.137 531.703 530.554 533.664 527.93C534.049 527.414 533.182 526.915 532.8 527.425C531.651 528.963 527.337 525.869 526.333 525.006C523.84 522.864 526.289 519.2 527.543 516.978C528.205 515.516 529.308 514.299 530.699 513.498C533.281 512.314 535.747 514.094 536.837 516.385C537.865 518.548 536.324 520.67 535.344 522.553C534.498 524.178 533.651 525.802 532.8 527.425C532.502 527.994 533.364 528.5 533.664 527.93Z" fill="black"/>
<path d="M495.163 517.732C494.048 514.877 496.273 513.226 498.477 511.956C500.299 510.907 502.293 509.571 504.39 509.192C510.356 508.112 510.296 516.901 510.226 520.65C510.221 522.87 509.98 525.083 509.506 527.253C509.226 528.439 508.863 529.941 507.724 530.622C505.677 531.844 503.642 529.571 502.448 528.34C499.457 525.17 496.982 521.55 495.113 517.613C494.827 517.036 493.964 517.542 494.249 518.117C495.699 521.169 497.5 524.041 499.615 526.676C501.207 528.597 503.307 531.476 505.969 531.896C511.871 532.825 511.282 521.35 511.218 518.077C511.133 513.697 509.663 506.922 503.817 508.301C500.932 509.107 498.25 510.512 495.946 512.426C494.139 513.914 493.319 515.746 494.199 517.998C494.43 518.591 495.398 518.333 495.163 517.732Z" fill="black"/>
<path d="M482.39 561.118C482.363 565.579 475.05 565.765 471.82 565.594C465.229 565.245 467.434 557.853 469.033 553.908C469.836 551.861 470.813 549.887 471.953 548.007C472.476 546.943 473.204 545.992 474.093 545.208C476.783 543.398 478.124 545.095 479.114 547.111C481.092 551.528 482.203 556.283 482.39 561.118C482.435 561.757 483.436 561.762 483.39 561.118C483.2 557.547 482.57 554.013 481.516 550.595C480.754 548.262 479.754 544.435 477.098 543.523C472.041 541.784 468.7 551.899 467.468 555.175C465.742 559.767 465.414 566.313 471.82 566.594C475.699 566.765 483.358 566.446 483.39 561.118C483.38 560.849 483.159 560.635 482.89 560.635C482.62 560.635 482.399 560.849 482.39 561.118V561.118Z" fill="black"/>
<path d="M495.831 545.971C495.37 551.217 494.185 557.44 498.137 561.653C499.927 563.561 503.007 566.169 505.632 566.612C508.093 567.028 508.583 564.623 509.081 562.756C510.504 557.424 511.659 550.72 506.665 546.97C504.333 545.22 496.692 540.316 495.849 545.839C495.753 546.468 496.717 546.74 496.814 546.104C497.494 541.644 505.496 547.068 507.14 548.655C510.752 552.144 509.189 558.594 508.02 562.851C507.95 563.407 507.793 563.948 507.554 564.455C506.664 565.442 505.182 565.621 504.083 564.875C503.131 564.332 502.216 563.729 501.343 563.068C499.13 561.45 497.257 559.614 496.647 556.837C495.879 553.333 496.521 549.499 496.831 545.971C496.888 545.331 495.887 545.334 495.831 545.971Z" fill="black"/>
<path d="M524.316 543.944C523.699 548.45 523.03 553.615 526.765 556.89C528.243 558.187 531.091 560.179 533.234 559.703C535.361 559.23 536.255 556.067 536.804 554.345C538.137 550.172 540.385 542.477 534.519 540.86C532.208 540.241 529.795 540.104 527.43 540.457C525.377 540.79 524.638 541.929 524.316 543.944C524.215 544.573 525.178 544.844 525.28 544.21C525.638 541.973 526.791 541.422 528.893 541.341C530.606 541.247 532.324 541.387 533.999 541.757C539.219 543.024 537.087 549.963 535.977 553.648C535.148 556.403 533.883 559.672 530.372 558.057C528.505 557.263 526.904 555.949 525.761 554.271C524.161 551.652 524.883 547.111 525.28 544.21C525.366 543.58 524.403 543.308 524.316 543.944Z" fill="black"/>
<path d="M436.167 550.726C436.152 548.02 436.36 545.317 436.789 542.644C436.966 541.57 437.186 540.502 437.425 539.439C437.73 538.084 437.771 536.738 439.039 536.082C440.845 535.148 444.035 535.964 445.879 536.634C448.575 537.614 449.694 539.658 450.7 542.173C451.433 544.003 452.148 545.858 452.696 547.753C452.984 548.738 453.214 549.738 453.385 550.75C453.586 551.965 453.652 553.549 452.4 554.356C451.951 554.644 450.655 554.454 450.089 554.463C447.8 554.53 445.509 554.376 443.249 554.005C441.355 553.666 436.698 552.832 436.149 550.593C435.996 549.968 435.031 550.233 435.185 550.859C435.749 553.161 438.929 553.945 440.923 554.499C444.211 555.314 447.602 555.635 450.985 555.449C453.464 555.378 454.756 554.476 454.554 551.865C454.302 548.614 453.042 545.441 451.871 542.436C451.007 540.221 450.166 537.962 448.093 536.608C445.587 535.182 442.716 534.527 439.84 534.723C437.067 534.875 436.874 537.266 436.37 539.576C435.567 543.238 435.164 546.977 435.167 550.726C435.176 550.996 435.397 551.21 435.667 551.21C435.937 551.21 436.158 550.996 436.167 550.726Z" fill="black"/>
<path d="M431.307 471.654C431.593 474.701 431.931 478.204 433.364 480.966C434.219 482.614 435.586 482.969 437.375 482.827C440.143 482.608 445.838 481.522 445.904 477.97C445.801 473.554 444.375 469.271 441.811 465.675C440.798 464.398 439.857 464.407 438.478 465.231C436.71 466.421 435.005 467.701 433.369 469.067C432.284 469.881 431.383 470.26 431.307 471.654C431.272 472.297 432.272 472.295 432.307 471.654C432.371 470.48 434.874 469.179 435.698 468.56C436.723 467.65 437.822 466.825 438.982 466.095C440.823 465.16 441.32 466.578 442.062 468.057C443.607 470.958 444.565 474.134 444.881 477.406C445.116 478.515 444.487 479.624 443.415 479.993C441.817 480.818 440.101 481.391 438.328 481.695C437.34 481.961 436.297 481.947 435.316 481.656C434.492 481.084 433.926 480.211 433.742 479.225C432.968 476.767 432.486 474.225 432.307 471.654C432.247 471.019 431.247 471.013 431.307 471.654Z" fill="black"/>
<path d="M462.387 513.51C462.613 516.657 463.184 519.769 464.089 522.791C464.564 524.26 465.133 526.087 466.649 526.768C469.979 528.263 475.753 526.031 478.571 524.17C481.045 522.536 479.893 518.843 479.289 516.459C478.433 513.082 477.192 508.324 474.64 505.76C472.848 503.96 470.872 505.923 469.283 507.115C467.455 508.487 465.628 509.859 463.8 511.232C462.878 511.925 462.381 512.318 462.387 513.51C462.396 513.779 462.617 513.993 462.887 513.993C463.157 513.993 463.378 513.779 463.387 513.51C463.379 511.986 466.888 510.156 467.96 509.351C469.308 508.339 470.856 506.729 472.512 506.314C473.742 506.006 473.83 506.232 474.532 507.256C474.993 507.961 475.398 508.701 475.746 509.469C477.368 512.867 478.929 517.039 479.025 520.85C479.069 522.575 478.492 523.148 476.984 523.902C474.941 524.93 472.75 525.632 470.49 525.982C469.354 526.257 468.163 526.206 467.054 525.836C465.956 525.301 465.525 523.917 465.152 522.835C464.196 519.808 463.603 516.677 463.387 513.51C463.329 512.874 462.328 512.868 462.387 513.51Z" fill="black"/>
<path d="M418.731 596.884C421.931 598.048 425.205 598.997 428.531 599.724C428.08 601.526 427.351 603.247 426.371 604.824C425.411 605.955 423.984 606.579 422.503 606.517C421.021 606.454 419.652 605.711 418.791 604.504C417.621 602.644 418.261 598.994 418.731 596.884Z" fill="black"/>
<path d="M455.301 604.34C454.826 606.3 453.97 608.146 452.781 609.774C450.871 612.024 446.611 610.864 445.431 608.784C444.371 606.934 444.781 603.655 445.071 602.005C448.437 602.966 451.851 603.746 455.301 604.34Z" fill="black"/>
<path d="M514.014 603.165C514.431 605.651 514.331 609.034 512.411 610.224C510.711 611.284 508.081 611.664 506.391 609.244C505.517 607.707 504.877 606.049 504.491 604.324C506.582 604.18 511.015 603.471 514.014 603.165Z" fill="black"/>
<path d="M540.531 607.344C538.581 609.046 535.635 608.91 533.851 607.034C532.681 605.744 531.935 603.202 531.525 601.362C534.856 601.077 538.162 600.555 541.419 599.802C541.449 600.042 542.496 605.409 540.531 607.344Z" fill="black"/>
</svg>
